<?xml version="1.0" encoding="UTF-8"?>
<svg width="660px" height="900px" viewBox="0 0 660 900" version="1.1" xmlns="http://www.w3.org/2000/svg" xmlns:xlink="http://www.w3.org/1999/xlink">
    <!-- Generator: Sketch 51.2 (57519) - http://www.bohemiancoding.com/sketch -->
    <title>brainfork_</title>
    <desc>Created with Sketch.</desc>
    <defs></defs>
    <g id="Page-1" stroke="none" stroke-width="1" fill="none" fill-rule="evenodd">
        <g id="brainfork_" fill="#07301E" fill-rule="nonzero">
            <path d="M485.49,900 L485.49,865 C499.708801,874.860677 518.918516,873.27663 531.33,861.22 L531.33,900 L568,900 L568,634 L453,634 L453,449.77 L489.67,449.77 C521.602089,449.765134 550.854657,431.91752 565.466718,403.52481 C580.078779,375.132099 577.600536,340.954499 559.045308,314.966774 C540.49008,288.97905 508.968762,275.538196 477.37,280.14 C463.551406,216.99363 407.63068,171.986958 342.99,171.986958 C278.34932,171.986958 222.428594,216.99363 208.61,280.14 C177.011238,275.538196 145.48992,288.97905 126.934692,314.966774 C108.379464,340.954499 105.901221,375.132099 120.513282,403.52481 C135.125343,431.91752 164.377911,449.765134 196.31,449.77 L232.98,449.77 L232.98,634 L118.8,634 L118.8,755 C88.7467788,762.460849 64.4853048,784.579072 54.2845942,813.816136 C44.0838836,843.053199 49.3206308,875.46325 68.21,900 L155.47,900 L155.47,899.76 L138,898.9 C108.563062,897.643948 85.3446748,873.413724 85.3446748,843.95 C85.3446748,814.486276 108.563062,790.256052 138,789 L155.44,788.14 L155.44,670.71 L531.33,670.71 L531.33,692.32 C502.74,694.61 480.96,703.93 466.45,720.13 C447.59,741.13 448.24,765.81 448.82,773.47 L448.82,900 L485.49,900 Z M531.33,809.31 C518.918516,797.25337 499.708801,795.669323 485.49,805.53 L485.49,770.36 L485.34,769.18 C485.34,769.04 484.05,755.44 493.76,744.6 C501.28,736.21 514.11,730.97 531.33,729.15 L531.33,809.31 Z M416.28,634 L269.6,634 L269.6,449.77 L292.06,449.77 L292.06,510.28 L328.73,510.28 L328.73,449.77 L356.23,449.77 L356.23,510.28 L392.9,510.28 L392.9,449.77 L416.28,449.77 L416.28,634 Z M196.28,413.06 C176.425494,413.070225 158.562058,400.999904 151.164054,382.575164 C143.76605,364.150424 148.321903,343.078186 162.670329,329.35506 C177.018754,315.631934 198.272956,312.018911 216.35,320.23 L240.92,331.4 L242.24,304.4 C244.966153,250.760911 289.251679,208.668994 342.96,208.668994 C396.668321,208.668994 440.953847,250.760911 443.68,304.4 L445,331.4 L469.57,320.23 C487.647044,312.018911 508.901246,315.631934 523.249671,329.35506 C537.598097,343.078186 542.15395,364.150424 534.755946,382.575164 C527.357942,400.999904 509.494506,413.070225 489.64,413.06 L196.28,413.06 Z" id="Shape"></path>
            <path d="M424.07,783.46 C424.07,735.361521 385.078479,696.37 336.98,696.37 C288.881521,696.37 249.89,735.361521 249.89,783.46 L286.56,783.46 C286.56,755.613803 309.133803,733.04 336.98,733.04 C364.826197,733.04 387.4,755.613803 387.4,783.46 L424.07,783.46 Z" id="Shape"></path>
            <circle id="Oval" transform="translate(349.958497, 835.232463) rotate(-9.220000) translate(-349.958497, -835.232463) " cx="349.958497" cy="835.232463" r="36.21"></circle>
            <path d="M16.11,90.46 L0.72,90.46 L0.72,5 L16.11,5 L16.11,38.71 L18.31,38.71 C19.8392793,35.4724468 22.3058698,32.7689521 25.39,30.95 C28.4766667,29.1166667 32.4233333,28.2033333 37.23,28.21 C40.7358177,28.1948463 44.2074419,28.8993818 47.43,30.28 C50.641881,31.6678507 53.517099,33.7313227 55.86,36.33 C58.3769077,39.1678834 60.3224825,42.4648349 61.59,46.04 C63.0800843,50.2299472 63.8049416,54.653609 63.73,59.1 L63.73,61.3 C63.8079401,65.7832891 63.1075569,70.2461179 61.66,74.49 C60.421446,78.0547209 58.5139954,81.3503338 56.04,84.2 C53.7407861,86.8084998 50.8786721,88.8601944 47.67,90.2 C42.0381488,92.3943784 35.8638447,92.7857321 30,91.32 C28.1217904,90.8227139 26.330968,90.040283 24.69,89 C23.2572021,88.0871121 21.9780237,86.9530647 20.9,85.64 C19.8962259,84.3968166 19.0185738,83.0568897 18.28,81.64 L16.08,81.64 L16.11,90.46 Z M32.23,77.52 C37.03,77.52 40.9166667,76.0333333 43.89,73.06 C46.8633333,70.0866667 48.35,66.0366667 48.35,60.91 L48.35,59.45 C48.35,54.3233333 46.8633333,50.2733333 43.89,47.3 C40.7816367,44.2737657 36.5644971,42.6606917 32.23,42.84 C27.8702938,42.6652129 23.6370686,44.3265815 20.56,47.42 C17.5933333,50.4733333 16.11,54.4733333 16.11,59.42 L16.11,60.88 C16.11,65.8533333 17.5933333,69.8533333 20.56,72.88 C23.6267587,75.9954132 27.861304,77.6790713 32.23,77.52 Z" id="Shape"></path>
            <path d="M75.09,29.9 L100.73,29.9 L100.73,38.69 L102.93,38.69 C103.938697,35.5262508 105.981376,32.7932884 108.73,30.93 C111.654564,29.0444533 115.081754,28.0891633 118.56,28.19 C124.56,28.19 129.403333,30.08 133.09,33.86 C136.776667,37.64 138.61,43.4 138.59,51.14 L138.59,53.83 L122.71,55.3 L122.71,53.59 C122.861167,50.7003273 121.950687,47.8550793 120.15,45.59 C118.44,43.59 115.87,42.59 112.45,42.59 C109.360781,42.4465039 106.38228,43.7563041 104.4,46.13 C102.44,48.49 101.46,51.8666667 101.46,56.26 L101.46,75.8 L115.39,75.8 L115.39,90.45 L73.62,90.45 L73.62,75.81 L86.08,75.81 L86.08,44.55 L75.08,44.55 L75.09,29.9 Z" id="Shape"></path>
            <path d="M192,81.67 C190.373333,85.5033333 188.093333,88.21 185.16,89.79 C181.99496,91.4345946 178.465844,92.2532394 174.9,92.17 C171.357778,92.1939724 167.848454,91.4893847 164.59,90.1 C161.351907,88.700453 158.45547,86.6159739 156.1,83.99 C153.554726,81.137824 151.585215,77.8202151 150.3,74.22 C148.809916,70.0300528 148.085058,65.606391 148.16,61.16 L148.16,59.16 C148.093136,54.7583533 148.797087,50.3789624 150.24,46.22 C151.477996,42.6390795 153.381374,39.324284 155.85,36.45 C160.441164,31.1268209 167.140661,28.0915685 174.17,28.15 C178.49,28.15 181.97,28.88 184.61,30.34 C187.359301,31.9200051 189.555456,34.3081928 190.9,37.18 L193.1,37.18 L193.1,29.9 L208.49,29.9 L208.49,72.15 C208.49,74.59 209.58,75.81 211.78,75.81 L214.1,75.81 L214.1,90.46 L203.6,90.46 C201.108092,90.5631897 198.674687,89.6874509 196.82,88.02 C195.067316,86.3833057 194.111372,84.0664168 194.2,81.67 L192,81.67 Z M178.32,77.52 C182.362539,77.6756149 186.268731,76.0443774 189,73.06 C191.666667,70.0933333 193,66.0433333 193,60.91 L193,59.45 C193,54.3233333 191.666667,50.2733333 189,47.3 C186.153607,44.4439289 182.287257,42.8385888 178.255,42.8385888 C174.222743,42.8385888 170.356393,44.4439289 167.51,47.3 C164.843333,50.2666667 163.51,54.3166667 163.51,59.45 L163.51,60.91 C163.51,66.0366667 164.843333,70.0866667 167.51,73.06 C170.257928,76.0685776 174.199447,77.7023299 178.27,77.52 L178.32,77.52 Z" id="Shape"></path>
            <path d="M228.58,75.81 L249.1,75.81 L249.1,44.55 L230.05,44.55 L230.05,29.9 L264.49,29.9 L264.49,75.81 L282.07,75.81 L282.07,90.46 L228.58,90.46 L228.58,75.81 Z M268.27,12 C268.282551,13.5695513 267.972827,15.1249768 267.36,16.57 C266.777242,17.9489118 265.92373,19.196876 264.85,20.24 C263.76848,21.2725102 262.507898,22.0993435 261.13,22.68 C259.721681,23.2877714 258.203867,23.6008629 256.67,23.6 C255.115534,23.613223 253.575623,23.2997898 252.15,22.68 C250.795664,22.0888515 249.556574,21.2627916 248.49,20.24 C247.41584,19.1993407 246.565176,17.9505662 245.99,16.57 C244.763857,13.6432317 244.763857,10.3467683 245.99,7.42 C246.565176,6.03943379 247.41584,4.79065927 248.49,3.75 C249.559172,2.7304499 250.797657,1.90479289 252.15,1.31 C253.575623,0.690210247 255.115534,0.376777034 256.67,0.39 C258.203867,0.389137099 259.721681,0.702228604 261.13,1.31 C262.505924,1.89435369 263.765875,2.72077305 264.85,3.75 C265.92373,4.79312398 266.777242,6.04108818 267.36,7.42 C267.973624,8.86828664 268.283352,10.4271394 268.27,12 Z" id="Shape"></path>
            <path d="M317.61,90.46 L302.22,90.46 L302.22,29.9 L317.61,29.9 L317.61,38.9 L319.8,38.9 C321.095026,35.5824479 323.459877,32.7917833 326.52,30.97 C329.811447,29.0405414 333.575834,28.067411 337.39,28.16 C340.19741,28.1411251 342.98636,28.6149758 345.63,29.56 C348.181316,30.4911644 350.496172,31.9729454 352.41,33.9 C354.463701,36.0141979 356.027299,38.5541919 356.99,41.34 C358.160512,44.8002247 358.718869,48.4380099 358.64,52.09 L358.64,90.43 L343.25,90.43 L343.25,56 C343.25,51.68 342.25,48.29 340.14,45.8 C338.03,43.31 335.07,42.08 331.14,42.08 C326.58,42.08 323.18,43.6066667 320.94,46.66 C318.7,49.7133333 317.59,53.8266667 317.61,59 L317.61,90.46 Z" id="Shape"></path>
            <path d="M376.46,29.9 L393.68,29.9 L393.68,17.44 C393.604125,14.1307538 394.882817,10.9340229 397.22,8.59 C399.519175,6.22307974 402.701146,4.92202334 406,5 L430.66,5 L430.66,19.66 L412.36,19.66 C410.166667,19.66 409.07,20.88 409.07,23.32 L409.07,29.92 L432.88,29.92 L432.88,44.57 L409.07,44.57 L409.07,90.48 L393.68,90.48 L393.68,44.55 L376.46,44.55 L376.46,29.9 Z" id="Shape"></path>
            <path d="M511,60.91 C511.092838,65.4968051 510.220655,70.051919 508.44,74.28 C506.830387,77.9987595 504.443614,81.3300131 501.44,84.05 C498.499282,86.6825693 495.076146,88.7201498 491.36,90.05 C483.663269,92.8099222 475.246731,92.8099222 467.55,90.05 C463.837938,88.7178446 460.418503,86.680445 457.48,84.05 C454.476386,81.3300131 452.089613,77.9987595 450.48,74.28 C448.72674,70.0460111 447.881853,65.4911161 448,60.91 L448,59.45 C447.918832,54.9020495 448.794423,50.387812 450.57,46.2 C452.188222,42.4687319 454.573184,39.1195632 457.57,36.37 C460.491213,33.6896144 463.91348,31.613145 467.64,30.26 C475.336731,27.5000778 483.753269,27.5000778 491.45,30.26 C495.180987,31.6100483 498.607107,33.6867938 501.53,36.37 C504.526816,39.1195632 506.911778,42.4687319 508.53,46.2 C510.271323,50.3952015 511.112794,54.909163 511,59.45 L511,60.91 Z M479.5,77.52 C481.625912,77.5308801 483.736358,77.1582491 485.73,76.42 C489.626134,75.0021363 492.746927,72.0119812 494.33,68.18 C495.219058,66.0319764 495.658104,63.7244305 495.62,61.4 L495.62,59 C495.658104,56.6755695 495.219058,54.3680236 494.33,52.22 C492.746927,48.3880188 489.626134,45.3978637 485.73,43.98 C481.706181,42.5131422 477.293819,42.5131422 473.27,43.98 C469.368745,45.3933438 466.24323,48.3845451 464.66,52.22 C463.779227,54.370186 463.34378,56.6766945 463.38,59 L463.38,61.44 C463.342946,63.7633769 463.778424,66.0700517 464.66,68.22 C466.24323,72.0554549 469.368745,75.0466562 473.27,76.46 C475.275382,77.1890397 477.396397,77.5481893 479.53,77.52 L479.5,77.52 Z" id="Shape"></path>
            <path d="M523.49,29.9 L549.13,29.9 L549.13,38.69 L551.33,38.69 C552.338697,35.5262508 554.381376,32.7932884 557.13,30.93 C560.054564,29.0444533 563.481754,28.0891633 566.96,28.19 C572.96,28.19 577.803333,30.08 581.49,33.86 C585.176667,37.64 587.01,43.4 586.99,51.14 L586.99,53.83 L571.11,55.3 L571.11,53.59 C571.261167,50.7003273 570.350687,47.8550793 568.55,45.59 C566.84,43.59 564.27,42.59 560.86,42.59 C557.767331,42.4433245 554.784443,43.7534267 552.8,46.13 C550.84,48.49 549.86,51.8666667 549.86,56.26 L549.86,75.8 L563.79,75.8 L563.79,90.45 L522,90.45 L522,75.81 L534.46,75.81 L534.46,44.55 L523.46,44.55 L523.49,29.9 Z" id="Shape"></path>
            <polygon id="Shape" points="621.42 52.12 624.35 52.12 640.47 29.9 657.32 29.9 657.32 30.63 637.79 58.35 637.79 60.55 659.28 89.73 659.28 90.46 641.69 90.46 624.35 66.77 621.42 66.77 621.42 90.46 606 90.46 606 5 621.38 5"></polygon>
        </g>
    </g>
</svg>