<?xml version="1.0" encoding="UTF-8"?>
<svg width="731px" height="902px" viewBox="0 0 731 902" version="1.1" xmlns="http://www.w3.org/2000/svg" xmlns:xlink="http://www.w3.org/1999/xlink">
    <!-- Generator: Sketch 51.2 (57519) - http://www.bohemiancoding.com/sketch -->
    <title>brainfuck_logo</title>
    <desc>Created with Sketch.</desc>
    <defs></defs>
    <g id="Page-1" stroke="none" stroke-width="1" fill="none" fill-rule="evenodd">
        <g id="brainfuck_logo" transform="translate(-134.000000, -98.000000)">
            <path d="M151.9,198.66 L134.84,198.66 L134.84,103.88 L151.9,103.88 L151.9,141.25 L154.34,141.25 C156.037723,137.665374 158.772398,134.672909 162.19,132.66 C165.623333,130.62 170.003333,129.62 175.33,129.66 C179.214405,129.644981 183.060513,130.427817 186.63,131.96 C190.190641,133.492642 193.377036,135.778386 195.97,138.66 C198.759553,141.811778 200.921604,145.46724 202.34,149.43 C203.983341,154.077699 204.78587,158.980911 204.71,163.91 L204.71,166.35 C204.797153,171.320662 204.015406,176.268347 202.4,180.97 C201.037483,184.926102 198.925679,188.582715 196.18,191.74 C193.627598,194.623064 190.454727,196.889888 186.9,198.37 C180.67296,200.82435 173.835437,201.275291 167.34,199.66 C165.258043,199.105993 163.272134,198.239476 161.45,197.09 C159.862525,196.075317 158.445096,194.816505 157.25,193.36 C156.138704,191.991835 155.164053,190.518137 154.34,188.96 L151.9,188.96 L151.9,198.66 Z M169.77,184.31 C175.103333,184.31 179.413333,182.663333 182.7,179.37 C185.986667,176.076667 187.653333,171.586667 187.7,165.9 L187.7,164.27 C187.7,158.583333 186.033333,154.093333 182.7,150.8 C179.366667,147.506667 175.056667,145.86 169.77,145.86 C164.436667,145.86 160.126667,147.55 156.84,150.93 C153.553333,154.31 151.906667,158.756667 151.9,164.27 L151.9,165.9 C151.9,171.4 153.546667,175.843333 156.84,179.23 C160.133333,182.616667 164.443333,184.31 169.77,184.31 Z" id="Shape" fill="#07301E" fill-rule="nonzero"></path>
            <path d="M217.3,131.5 L245.73,131.5 L245.73,141.25 L248.17,141.25 C249.283877,137.743777 251.54974,134.716754 254.6,132.66 C257.844768,130.577179 261.646432,129.530849 265.5,129.66 C272.166667,129.66 277.536667,131.76 281.61,135.96 C285.683333,140.16 287.713333,146.543333 287.7,155.11 L287.7,158.11 L270.1,159.74 L270.1,157.84 C270.261574,154.636598 269.25212,151.483832 267.26,148.97 C265.36,146.756667 262.516667,145.653333 258.73,145.66 C255.301648,145.500451 251.99529,146.950218 249.79,149.58 C247.63,152.2 246.546667,155.946667 246.54,160.82 L246.54,182.48 L262,182.48 L262,198.73 L215.67,198.73 L215.67,182.41 L229.48,182.41 L229.48,147.75 L217.3,147.75 L217.3,131.5 Z" id="Shape" fill="#07301E" fill-rule="nonzero"></path>
            <path d="M346.87,188.91 C345.056667,193.163333 342.53,196.163333 339.29,197.91 C335.778905,199.73264 331.864946,200.640624 327.91,200.55 C323.978314,200.575664 320.083675,199.789247 316.47,198.24 C312.881431,196.689024 309.671221,194.379447 307.06,191.47 C304.241247,188.306291 302.058159,184.629333 300.63,180.64 C298.981864,175.993532 298.179193,171.089451 298.26,166.16 L298.26,164 C298.1884,159.11946 298.966677,154.263688 300.56,149.65 C301.937185,145.680365 304.050802,142.006131 306.79,138.82 C311.880015,132.917761 319.306342,129.550135 327.1,129.61 C331.89,129.61 335.74,130.42 338.68,132.05 C341.742256,133.790472 344.188279,136.439166 345.68,139.63 L348.12,139.63 L348.12,131.5 L365.18,131.5 L365.18,178.35 C365.18,181.063333 366.396667,182.416667 368.83,182.41 L371.41,182.41 L371.41,198.66 L359.73,198.66 C356.968482,198.774276 354.272226,197.801326 352.22,195.95 C350.284682,194.146358 349.223661,191.594073 349.31,188.95 L346.87,188.91 Z M331.71,184.31 C336.214129,184.499632 340.572386,182.691925 343.62,179.37 C346.6,176.036667 348.09,171.546667 348.09,165.9 L348.09,164.27 C348.09,158.583333 346.6,154.093333 343.62,150.8 C340.64,147.506667 336.67,145.86 331.71,145.86 C326.743333,145.86 322.77,147.506667 319.79,150.8 C316.81,154.093333 315.32,158.583333 315.32,164.27 L315.32,165.9 C315.32,171.58 316.81,176.07 319.79,179.37 C322.77,182.67 326.743333,184.316667 331.71,184.31 Z" id="Shape" fill="#07301E" fill-rule="nonzero"></path>
            <path d="M387.49,182.41 L410.23,182.41 L410.23,147.75 L389.11,147.75 L389.11,131.5 L427.29,131.5 L427.29,182.41 L446.79,182.41 L446.79,198.66 L387.49,198.66 L387.49,182.41 Z M431.49,111.6 C431.504232,113.343591 431.164015,115.071891 430.49,116.68 C429.844326,118.205713 428.89899,119.586311 427.71,120.74 C426.509742,121.887163 425.110128,122.805553 423.58,123.45 C422.019412,124.118826 420.337845,124.459224 418.64,124.45 C416.921474,124.472871 415.217535,124.132083 413.64,123.45 C412.136487,122.794909 410.761682,121.877243 409.58,120.74 C408.387844,119.588984 407.442038,118.207698 406.8,116.68 C405.453284,113.427214 405.453284,109.772786 406.8,106.52 C407.444472,104.993631 408.389963,103.612806 409.58,102.46 C410.764194,101.325884 412.138412,100.40861 413.64,99.75 C415.218959,99.0724864 416.921917,98.7318948 418.64,98.75 C420.337347,98.745843 422.0179,99.0860358 423.58,99.75 C425.108143,100.398166 426.50712,101.316139 427.71,102.46 C428.896921,103.615431 429.841953,104.995586 430.49,106.52 C431.163215,108.128353 431.503398,109.856487 431.49,111.6 Z" id="Shape" fill="#07301E" fill-rule="nonzero"></path>
            <path d="M486.19,198.66 L469.13,198.66 L469.13,131.5 L486.19,131.5 L486.19,141.5 L488.63,141.5 C490.065614,137.822839 492.682829,134.727208 496.07,132.7 C499.72217,130.569893 503.893137,129.493403 508.12,129.59 C511.234858,129.566504 514.329277,130.094655 517.26,131.15 C520.088644,132.17855 522.6561,133.817352 524.78,135.95 C527.056156,138.297541 528.78718,141.117711 529.85,144.21 C531.149661,148.046407 531.768974,152.080405 531.68,156.13 L531.68,198.64 L514.62,198.64 L514.62,160.48 C514.62,155.7 513.47,151.93 511.17,149.17 C508.87,146.41 505.553333,145.02 501.22,145 C496.16,145 492.39,146.693333 489.91,150.08 C487.43,153.466667 486.19,158.003333 486.19,163.69 L486.19,198.66 Z" id="Shape" fill="#07301E" fill-rule="nonzero"></path>
            <path d="M551.45,131.5 L570.54,131.5 L570.54,117.69 C570.455501,114.020549 571.875417,110.47618 574.47,107.88 C577.017433,105.241583 580.55357,103.790861 584.22,103.88 L611.57,103.88 L611.57,120.13 L591.26,120.13 C588.82,120.13 587.6,121.49 587.6,124.19 L587.6,131.5 L614,131.5 L614,147.75 L587.6,147.75 L587.6,198.66 L570.54,198.66 L570.54,147.75 L551.45,147.75 L551.45,131.5 Z" id="Shape" fill="#07301E" fill-rule="nonzero"></path>
            <path d="M680.35,131.5 L697.41,131.5 L697.41,198.66 L680.35,198.66 L680.35,188.91 L677.91,188.91 C674.93,196.683333 668.52,200.566667 658.68,200.56 C655.493921,200.583433 652.329803,200.031237 649.34,198.93 C646.46501,197.86336 643.872184,196.153053 641.76,193.93 C639.486508,191.501687 637.754939,188.618011 636.68,185.47 C635.383239,181.605296 634.764129,177.545556 634.85,173.47 L634.85,131.47 L651.91,131.47 L651.91,170 C651.91,174.78 653.04,178.503333 655.3,181.17 C657.56,183.836667 660.943333,185.17 665.45,185.17 C670.596667,185.17 674.366667,183.523333 676.76,180.23 C679.15,176.94 680.35,172.44 680.35,166.76 L680.35,131.5 Z" id="Shape" fill="#07301E" fill-rule="nonzero"></path>
            <path d="M783.25,174 C781.972845,181.483047 778.116505,188.282942 772.35,193.22 C766.61,198.1 758.943333,200.54 749.35,200.54 C744.624341,200.581269 739.927567,199.799601 735.47,198.23 C731.338809,196.793409 727.53975,194.538462 724.3,191.6 C721.072045,188.614108 718.530261,184.963492 716.85,180.9 C714.974065,176.307052 714.052038,171.3805 714.14,166.42 L714.14,164.79 C714.061401,159.784882 714.982737,154.814429 716.85,150.17 C718.556891,145.986992 721.118186,142.206357 724.37,139.07 C727.599398,135.998608 731.420339,133.616899 735.6,132.07 C739.995494,130.422437 744.656,129.595409 749.35,129.63 C758.73,129.63 766.333333,132.066667 772.16,136.94 C777.982351,141.85 781.879083,148.662196 783.16,156.17 L766.37,160.5 C765.853253,156.590319 764.03984,152.967016 761.22,150.21 C758.326667,147.323333 754.266667,145.88 749.04,145.88 C746.669857,145.866509 744.320785,146.325445 742.13,147.23 C739.989274,148.113924 738.052675,149.42768 736.44,151.09 C734.763875,152.845243 733.45197,154.915063 732.58,157.18 C731.604865,159.753696 731.123136,162.488012 731.16,165.24 L731.16,166 C731.113324,168.70726 731.595681,171.39759 732.58,173.92 C733.444981,176.091299 734.760587,178.054483 736.44,179.68 C738.073929,181.216051 740.012514,182.391467 742.13,183.13 C744.350245,183.907138 746.687731,184.296155 749.04,184.28 C754.273333,184.28 758.273333,182.97 761.04,180.35 C763.913949,177.497949 765.790339,173.794271 766.39,169.79 L783.25,174 Z" id="Shape" fill="#07301E" fill-rule="nonzero"></path>
            <polygon id="Shape" fill="#07301E" fill-rule="nonzero" points="823.05 156.15 826.3 156.15 844.17 131.5 862.86 131.5 862.86 132.32 841.19 163.05 841.19 165.49 865 197.85 865 198.66 845.53 198.66 826.3 172.39 823.05 172.39 823.05 198.66 806 198.66 806 103.88 823.06 103.88"></polygon>
            <rect id="Rectangle-path" x="0" y="0" width="1000" height="1000"></rect>
            <path d="M666.49,1000 L666.49,965 C680.708801,974.860677 699.918516,973.27663 712.33,961.22 L712.33,1000 L749,1000 L749,734 L634,734 L634,549.77 L670.67,549.77 C702.602089,549.765134 731.854657,531.91752 746.466718,503.52481 C761.078779,475.132099 758.600536,440.954499 740.045308,414.966774 C721.49008,388.97905 689.968762,375.538196 658.37,380.14 C644.551406,316.99363 588.63068,271.986958 523.99,271.986958 C459.34932,271.986958 403.428594,316.99363 389.61,380.14 C358.011238,375.538196 326.48992,388.97905 307.934692,414.966774 C289.379464,440.954499 286.901221,475.132099 301.513282,503.52481 C316.125343,531.91752 345.377911,549.765134 377.31,549.77 L413.98,549.77 L413.98,734 L299.8,734 L299.8,855 C269.746779,862.460849 245.485305,884.579072 235.284594,913.816136 C225.083884,943.053199 230.320631,975.46325 249.21,1000 L336.47,1000 L336.47,999.76 L319,998.9 C289.563062,997.643948 266.344675,973.413724 266.344675,943.95 C266.344675,914.486276 289.563062,890.256052 319,889 L336.44,888.14 L336.44,770.71 L712.33,770.71 L712.33,792.32 C683.74,794.61 661.96,803.93 647.45,820.13 C628.59,841.13 629.24,865.81 629.82,873.47 L629.82,1000 L666.49,1000 Z M712.33,909.31 C699.918516,897.25337 680.708801,895.669323 666.49,905.53 L666.49,870.36 L666.34,869.18 C666.34,869.04 665.05,855.44 674.76,844.6 C682.28,836.21 695.11,830.97 712.33,829.15 L712.33,909.31 Z M597.28,734 L450.6,734 L450.6,549.77 L473.06,549.77 L473.06,610.28 L509.73,610.28 L509.73,549.77 L537.23,549.77 L537.23,610.28 L573.9,610.28 L573.9,549.77 L597.28,549.77 L597.28,734 Z M377.28,513.06 C357.425494,513.070225 339.562058,500.999904 332.164054,482.575164 C324.76605,464.150424 329.321903,443.078186 343.670329,429.35506 C358.018754,415.631934 379.272956,412.018911 397.35,420.23 L421.92,431.4 L423.24,404.4 C425.966153,350.760911 470.251679,308.668994 523.96,308.668994 C577.668321,308.668994 621.953847,350.760911 624.68,404.4 L626,431.4 L650.57,420.23 C668.647044,412.018911 689.901246,415.631934 704.249671,429.35506 C718.598097,443.078186 723.15395,464.150424 715.755946,482.575164 C708.357942,500.999904 690.494506,513.070225 670.64,513.06 L377.28,513.06 Z" id="Shape" fill="#07301E" fill-rule="nonzero"></path>
            <path d="M605.07,883.46 C605.07,835.361521 566.078479,796.37 517.98,796.37 C469.881521,796.37 430.89,835.361521 430.89,883.46 L467.56,883.46 C467.56,855.613803 490.133803,833.04 517.98,833.04 C545.826197,833.04 568.4,855.613803 568.4,883.46 L605.07,883.46 Z" id="Shape" fill="#07301E" fill-rule="nonzero"></path>
            <circle id="Oval" fill="#07301E" fill-rule="nonzero" transform="translate(530.953462, 935.229754) rotate(-9.220000) translate(-530.953462, -935.229754) " cx="530.953462" cy="935.229754" r="36.21"></circle>
        </g>
    </g>
</svg>